<?xml version="1.0" standalone="no"?>
<svg xmlns="http://www.w3.org/2000/svg" viewBox="0 0 104.583 120.762" width="104.583" height="120.762"><polygon fill="#3052ce" points="104.583,30.1905 104.583,90.5715 52.2915,120.762 0,90.5715 0,30.1905 52.2915,0"></polygon><g fill="white" color="white" transform="translate(30.2915 22.5) scale(0.44)"><svg width="100.0" height="100.0" x="0.0" y="0.0" viewBox="0 0 100 100"><path d="M91.421,26.871L79.727,45H59.21H57H43.759c-1.44,0-2.804-0.36-3.844-1.358l-3.307-2.999L30.671,59h13.806  c2.894,0,5.472,2.063,6.268,4.846l0.086,0.48l4.275,22.598c0.412,2.185-1.023,4.272-3.208,4.685  c-0.253,0.047-0.504,0.033-0.753,0.033c-1.897,0-3.585-1.422-3.951-3.353L43.198,67H25.31c-2.38,0-4.578-0.938-6.031-2.822  c-1.452-1.885-1.939-4.142-1.333-6.443l0.057-0.211l8.344-26.252c0.608-2.123,2.324-3.729,4.508-4.116  c2.062-0.362,4.083,0.274,5.396,1.858L44.768,37H59.21c2.223,0,4.025,1.777,4.025,4c0,0.734-0.211,1.411-0.555,2h15.957  l11.104-17.213c0.298-0.465,0.917-0.599,1.382-0.298C91.587,25.788,91.721,26.407,91.421,26.871z M36.719,23.807  c4.436,0,8.032-3.596,8.032-8.032s-3.596-8.032-8.032-8.032s-8.032,3.596-8.032,8.032S32.283,23.807,36.719,23.807z"></path><rect x="39.649" y="46.288" width="52.904" height="3.45"></rect><rect x="67.251" y="50.889" width="25.302" height="43.703"></rect><path fill="currentColor" d="M39.466,69H15.681c-0.461,0-0.877,0.072-1.2,0.354c-1.933-1.639-2.98-3.953-3.364-6.429  C12.044,62.834,13,62.007,13,61.057V37.271C13,36.26,11.725,35,10.714,35H8.78C7.769,35,7,36.26,7,37.271v23.786  C7,62.067,7.769,63,8.78,63h0.096c0.436,3,2.271,6.3,4.995,8.332L14,71.207v1.35C14,73.568,14.67,74,15.681,74H26v11.589  c-3.67,0.324-6.936,2.421-8.777,5.555c-1.26,0.012-2.278,1.035-2.278,2.298c0,1.27,1.03,2.3,2.3,2.3c1.27,0,2.3-1.03,2.3-2.3  c0-0.544-0.197-1.038-0.513-1.432c1.5-2.452,4.072-4.098,6.967-4.409v3.586c-1.057,0.208-1.854,1.138-1.854,2.255  c0,1.27,1.03,2.3,2.3,2.3c1.27,0,2.3-1.03,2.3-2.3c0-0.669-0.29-1.266-0.746-1.686v-4.154c2.906,0.314,5.486,1.973,6.983,4.441  c-0.3,0.389-0.486,0.87-0.486,1.399c0,1.27,1.03,2.3,2.3,2.3c1.27,0,2.3-1.03,2.3-2.3c0-1.27-1.03-2.3-2.3-2.3  c-0.008,0-0.016,0.002-0.024,0.002c-1.84-3.134-5.104-5.23-8.773-5.555V74h11.466C40.477,74,41,73.568,41,72.557v-1.934  C41,69.612,40.477,69,39.466,69z"></path></svg></g><path fill="white" fill-rule="nonzero" d="M0 23.56L0 0.21L8.65 0.21L8.65 2.99L3.54 2.99L3.54 9.98L7.49 9.98L7.49 12.77L3.54 12.77L3.54 20.77L8.79 20.77L8.79 23.56L0 23.56ZM16.38 23.76L16.38 23.76Q15.83 23.76 15.20 23.67Q14.56 23.58 13.92 23.30Q13.29 23.01 12.71 22.48Q12.13 21.96 11.68 21.10Q11.24 20.23 10.97 18.97Q10.71 17.71 10.71 15.96L10.71 15.96L10.71 7.68Q10.71 5.92 10.98 4.67Q11.25 3.42 11.70 2.56Q12.15 1.71 12.74 1.20Q13.33 0.70 13.96 0.43Q14.59 0.16 15.21 0.08Q15.83 0 16.37 0L16.37 0Q17.76 0 18.70 0.39Q19.63 0.78 20.20 1.46Q20.77 2.13 21.01 3.04Q21.25 3.94 21.25 4.95L21.25 4.95Q21.25 5.70 21.17 6.34Q21.10 6.97 20.95 7.74L20.95 7.74L18.07 7.74L18.07 6.55Q18.07 4.62 17.65 3.66Q17.23 2.71 16.41 2.71L16.41 2.71Q15.91 2.71 15.54 2.90Q15.18 3.09 14.93 3.55Q14.68 4.01 14.55 4.76Q14.42 5.51 14.42 6.63L14.42 6.63L14.42 17.29Q14.42 18.39 14.53 19.11Q14.63 19.84 14.86 20.28Q15.09 20.71 15.47 20.90Q15.85 21.08 16.38 21.08L16.38 21.08Q16.72 21.08 17.04 20.92Q17.35 20.77 17.59 20.43Q17.83 20.10 17.97 19.58Q18.12 19.07 18.12 18.38L18.12 18.38L18.12 16.09L21.36 16.09L21.36 18.25Q21.36 21.07 20.07 22.41Q18.79 23.75 16.38 23.76Z" transform="translate(41.614, 74.5)"></path></svg>